<svg xmlns="http://www.w3.org/2000/svg" version="1.1" xmlns:xlink="http://www.w3.org/1999/xlink" width="512" height="512" x="0" y="0" viewBox="0 0 100 100" style="enable-background:new 0 0 512 512" xml:space="preserve" class=""><g><path d="M50 2.5C23.875 2.5 2.5 23.875 2.5 50S23.875 97.5 50 97.5 97.5 76.125 97.5 50 76.125 2.5 50 2.5zm-1.187 69.27c-1.188 1.188-2.771 1.98-4.355 1.98h-.395c-1.584 0-3.167-.792-4.355-1.583L26.052 58.51a5.878 5.878 0 1 1 8.312-8.312l8.907 8.906 21.587-25.972a5.878 5.878 0 0 1 8.264-.775l.095.079a5.878 5.878 0 0 1 .822 8.234z" fill="#ff0000" opacity="1" data-original="#000000" class=""></path></g></svg>