
      <svg
        xmlns="http://www.w3.org/2000/svg"
        version="1.1"
        xmlns:xlink="http://www.w3.org/1999/xlink"
        width="512"
        height="512"
        x="0"
        y="0"
        viewBox="0 0 512 512"
        style="enable-background: new 0 0 512 512"
        xml:space="preserve"
        class=""
      >
        <g>
          <path
            d="M213.332 512c38.637 0 70.957-27.543 78.379-64H134.953c7.426 36.457 39.746 64 78.379 64zM374.953 309.246c-.555 0-1.066.086-1.621.086-94.102 0-170.664-76.562-170.664-170.664 0-36.973 11.945-71.125 32-99.117V21.332C234.668 9.535 225.109 0 213.332 0 201.559 0 192 9.535 192 21.332v23.043C119.742 54.785 64 116.93 64 192v59.477c0 42.218-18.496 82.07-50.945 109.503A37.272 37.272 0 0 0 0 389.332c0 20.59 16.746 37.336 37.332 37.336h352c20.59 0 37.336-16.746 37.336-37.336 0-10.922-4.758-21.246-13.27-28.52-16.812-14.23-29.78-31.937-38.445-51.566zm0 0"
            fill="#ffffff"
            opacity="1"
            data-original="#ffffff"
            class=""
          ></path>
          <path
            d="M373.332 0c-76.457 0-138.664 62.207-138.664 138.668 0 76.457 62.207 138.664 138.664 138.664 76.461 0 138.668-62.207 138.668-138.664C512 62.207 449.793 0 373.332 0zm21.336 186.668c0 8.832-7.168 16-16 16s-16-7.168-16-16v-69.336H352c-8.832 0-16-7.168-16-16s7.168-16 16-16h26.668c8.832 0 16 7.168 16 16zm0 0"
            fill="#ffffff"
            opacity="1"
            data-original="#000000"
            class=""
          ></path>
        </g>
      </svg>
